{
    "streams": [
        {
            "index": 0,
            "codec_name": "hevc",
            "codec_long_name": "H.265 / HEVC (High Efficiency Video Coding)",
            "profile": "Main 10",
            "codec_type": "video",
            "codec_tag_string": "[0][0][0][0]",
            "codec_tag": "0x0000",
            "width": 3840,
            "height": 2160,
            "coded_width": 3840,
            "coded_height": 2160,
            "has_b_frames": 3,
            "sample_aspect_ratio": "1:1",
            "display_aspect_ratio": "16:9",
            "pix_fmt": "yuv420p10le",
            "level": 153,
            "color_range": "tv",
            "color_space": "bt2020nc",
            "color_transfer": "smpte2084",
            "color_primaries": "bt2020",
            "chroma_location": "topleft",
            "refs": 1,
            "view_ids_available": "",
            "view_pos_available": "",
            "r_frame_rate": "24000/1001",
            "avg_frame_rate": "24000/1001",
            "time_base": "1/1000",
            "start_pts": 0,
            "start_time": "0.000000",
            "extradata_size": 140,
            "disposition": {
                "default": 1,
                "dub": 0,
                "original": 0,
                "comment": 0,
                "lyrics": 0,
                "karaoke": 0,
                "forced": 0,
                "hearing_impaired": 0,
                "visual_impaired": 0,
                "clean_effects": 0,
                "attached_pic": 0,
                "timed_thumbnails": 0,
                "non_diegetic": 0,
                "captions": 0,
                "descriptions": 0,
                "metadata": 0,
                "dependent": 0,
                "still_image": 0,
                "multilayer": 0
            },
            "tags": {
                "language": "eng",
                "BPS-eng": "67238879",
                "DURATION-eng": "02:18:17.498000000",
                "NUMBER_OF_FRAMES-eng": "198941",
                "NUMBER_OF_BYTES-eng": "69739308462",
                "_STATISTICS_WRITING_APP-eng": "mkvmerge v28.0.0 ('Voice In My Head') 64-bit",
                "_STATISTICS_WRITING_DATE_UTC-eng": "2018-10-26 22:56:00",
                "_STATISTICS_TAGS-eng": "BPS DURATION NUMBER_OF_FRAMES NUMBER_OF_BYTES"
            }
        },
        {
            "index": 1,
            "codec_name": "truehd",
            "codec_long_name": "TrueHD",
            "profile": "Dolby TrueHD + Dolby Atmos",
            "codec_type": "audio",
            "codec_tag_string": "[0][0][0][0]",
            "codec_tag": "0x0000",
            "sample_fmt": "s32",
            "sample_rate": "48000",
            "channels": 8,
            "channel_layout": "7.1",
            "bits_per_sample": 0,
            "initial_padding": 0,
            "r_frame_rate": "0/0",
            "avg_frame_rate": "0/0",
            "time_base": "1/1000",
            "start_pts": 0,
            "start_time": "0.000000",
            "bits_per_raw_sample": "24",
            "disposition": {
                "default": 1,
                "dub": 0,
                "original": 0,
                "comment": 0,
                "lyrics": 0,
                "karaoke": 0,
                "forced": 0,
                "hearing_impaired": 0,
                "visual_impaired": 0,
                "clean_effects": 0,
                "attached_pic": 0,
                "timed_thumbnails": 0,
                "non_diegetic": 0,
                "captions": 0,
                "descriptions": 0,
                "metadata": 0,
                "dependent": 0,
                "still_image": 0,
                "multilayer": 0
            },
            "tags": {
                "language": "eng",
                "BPS-eng": "3424865",
                "DURATION-eng": "02:18:17.498000000",
                "NUMBER_OF_FRAMES-eng": "9956997",
                "NUMBER_OF_BYTES-eng": "3552227242",
                "_STATISTICS_WRITING_APP-eng": "mkvmerge v28.0.0 ('Voice In My Head') 64-bit",
                "_STATISTICS_WRITING_DATE_UTC-eng": "2018-10-26 22:56:00",
                "_STATISTICS_TAGS-eng": "BPS DURATION NUMBER_OF_FRAMES NUMBER_OF_BYTES"
            }
        },
        {
            "index": 2,
            "codec_name": "ac3",
            "codec_long_name": "ATSC A/52A (AC-3)",
            "codec_type": "audio",
            "codec_tag_string": "[0][0][0][0]",
            "codec_tag": "0x0000",
            "sample_fmt": "fltp",
            "sample_rate": "48000",
            "channels": 6,
            "channel_layout": "5.1(side)",
            "bits_per_sample": 0,
            "initial_padding": 0,
            "dmix_mode": "0",
            "ltrt_cmixlev": "0.000000",
            "ltrt_surmixlev": "0.000000",
            "loro_cmixlev": "0.000000",
            "loro_surmixlev": "0.000000",
            "r_frame_rate": "0/0",
            "avg_frame_rate": "0/0",
            "time_base": "1/1000",
            "start_pts": 0,
            "start_time": "0.000000",
            "bit_rate": "448000",
            "disposition": {
                "default": 0,
                "dub": 0,
                "original": 0,
                "comment": 0,
                "lyrics": 0,
                "karaoke": 0,
                "forced": 0,
                "hearing_impaired": 0,
                "visual_impaired": 0,
                "clean_effects": 0,
                "attached_pic": 0,
                "timed_thumbnails": 0,
                "non_diegetic": 0,
                "captions": 0,
                "descriptions": 0,
                "metadata": 0,
                "dependent": 0,
                "still_image": 0,
                "multilayer": 0
            },
            "tags": {
                "language": "eng",
                "BPS-eng": "448000",
                "DURATION-eng": "02:18:17.504000000",
                "NUMBER_OF_FRAMES-eng": "259297",
                "NUMBER_OF_BYTES-eng": "464660224",
                "_STATISTICS_WRITING_APP-eng": "mkvmerge v28.0.0 ('Voice In My Head') 64-bit",
                "_STATISTICS_WRITING_DATE_UTC-eng": "2018-10-26 22:56:00",
                "_STATISTICS_TAGS-eng": "BPS DURATION NUMBER_OF_FRAMES NUMBER_OF_BYTES"
            }
        },
        {
            "index": 3,
            "codec_name": "ac3",
            "codec_long_name": "ATSC A/52A (AC-3)",
            "codec_type": "audio",
            "codec_tag_string": "[0][0][0][0]",
            "codec_tag": "0x0000",
            "sample_fmt": "fltp",
            "sample_rate": "48000",
            "channels": 6,
            "channel_layout": "5.1(side)",
            "bits_per_sample": 0,
            "initial_padding": 0,
            "dmix_mode": "0",
            "ltrt_cmixlev": "0.000000",
            "ltrt_surmixlev": "0.000000",
            "loro_cmixlev": "0.000000",
            "loro_surmixlev": "0.000000",
            "r_frame_rate": "0/0",
            "avg_frame_rate": "0/0",
            "time_base": "1/1000",
            "start_pts": 2002,
            "start_time": "2.002000",
            "bit_rate": "640000",
            "disposition": {
                "default": 0,
                "dub": 0,
                "original": 0,
                "comment": 0,
                "lyrics": 0,
                "karaoke": 0,
                "forced": 0,
                "hearing_impaired": 0,
                "visual_impaired": 0,
                "clean_effects": 0,
                "attached_pic": 0,
                "timed_thumbnails": 0,
                "non_diegetic": 0,
                "captions": 0,
                "descriptions": 0,
                "metadata": 0,
                "dependent": 0,
                "still_image": 0,
                "multilayer": 0
            },
            "tags": {
                "language": "fre",
                "BPS-eng": "640000",
                "DURATION-eng": "02:18:15.456000000",
                "NUMBER_OF_FRAMES-eng": "259233",
                "NUMBER_OF_BYTES-eng": "663636480",
                "_STATISTICS_WRITING_APP-eng": "mkvmerge v28.0.0 ('Voice In My Head') 64-bit",
                "_STATISTICS_WRITING_DATE_UTC-eng": "2018-10-26 22:56:00",
                "_STATISTICS_TAGS-eng": "BPS DURATION NUMBER_OF_FRAMES NUMBER_OF_BYTES"
            }
        },
        {
            "index": 4,
            "codec_name": "ac3",
            "codec_long_name": "ATSC A/52A (AC-3)",
            "codec_type": "audio",
            "codec_tag_string": "[0][0][0][0]",
            "codec_tag": "0x0000",
            "sample_fmt": "fltp",
            "sample_rate": "48000",
            "channels": 6,
            "channel_layout": "5.1(side)",
            "bits_per_sample": 0,
            "initial_padding": 0,
            "dmix_mode": "0",
            "ltrt_cmixlev": "0.000000",
            "ltrt_surmixlev": "0.000000",
            "loro_cmixlev": "0.000000",
            "loro_surmixlev": "0.000000",
            "r_frame_rate": "0/0",
            "avg_frame_rate": "0/0",
            "time_base": "1/1000",
            "start_pts": 2002,
            "start_time": "2.002000",
            "bit_rate": "640000",
            "disposition": {
                "default": 0,
                "dub": 0,
                "original": 0,
                "comment": 0,
                "lyrics": 0,
                "karaoke": 0,
                "forced": 0,
                "hearing_impaired": 0,
                "visual_impaired": 0,
                "clean_effects": 0,
                "attached_pic": 0,
                "timed_thumbnails": 0,
                "non_diegetic": 0,
                "captions": 0,
                "descriptions": 0,
                "metadata": 0,
                "dependent": 0,
                "still_image": 0,
                "multilayer": 0
            },
            "tags": {
                "language": "ger",
                "BPS-eng": "640000",
                "DURATION-eng": "02:18:15.456000000",
                "NUMBER_OF_FRAMES-eng": "259233",
                "NUMBER_OF_BYTES-eng": "663636480",
                "_STATISTICS_WRITING_APP-eng": "mkvmerge v28.0.0 ('Voice In My Head') 64-bit",
                "_STATISTICS_WRITING_DATE_UTC-eng": "2018-10-26 22:56:00",
                "_STATISTICS_TAGS-eng": "BPS DURATION NUMBER_OF_FRAMES NUMBER_OF_BYTES"
            }
        },
        {
            "index": 5,
            "codec_name": "ac3",
            "codec_long_name": "ATSC A/52A (AC-3)",
            "codec_type": "audio",
            "codec_tag_string": "[0][0][0][0]",
            "codec_tag": "0x0000",
            "sample_fmt": "fltp",
            "sample_rate": "48000",
            "channels": 6,
            "channel_layout": "5.1(side)",
            "bits_per_sample": 0,
            "initial_padding": 0,
            "dmix_mode": "0",
            "ltrt_cmixlev": "0.000000",
            "ltrt_surmixlev": "0.000000",
            "loro_cmixlev": "0.000000",
            "loro_surmixlev": "0.000000",
            "r_frame_rate": "0/0",
            "avg_frame_rate": "0/0",
            "time_base": "1/1000",
            "start_pts": 2002,
            "start_time": "2.002000",
            "bit_rate": "640000",
            "disposition": {
                "default": 0,
                "dub": 0,
                "original": 0,
                "comment": 0,
                "lyrics": 0,
                "karaoke": 0,
                "forced": 0,
                "hearing_impaired": 0,
                "visual_impaired": 0,
                "clean_effects": 0,
                "attached_pic": 0,
                "timed_thumbnails": 0,
                "non_diegetic": 0,
                "captions": 0,
                "descriptions": 0,
                "metadata": 0,
                "dependent": 0,
                "still_image": 0,
                "multilayer": 0
            },
            "tags": {
                "language": "ita",
                "BPS-eng": "640000",
                "DURATION-eng": "02:18:15.456000000",
                "NUMBER_OF_FRAMES-eng": "259233",
                "NUMBER_OF_BYTES-eng": "663636480",
                "_STATISTICS_WRITING_APP-eng": "mkvmerge v28.0.0 ('Voice In My Head') 64-bit",
                "_STATISTICS_WRITING_DATE_UTC-eng": "2018-10-26 22:56:00",
                "_STATISTICS_TAGS-eng": "BPS DURATION NUMBER_OF_FRAMES NUMBER_OF_BYTES"
            }
        },
        {
            "index": 6,
            "codec_name": "ac3",
            "codec_long_name": "ATSC A/52A (AC-3)",
            "codec_type": "audio",
            "codec_tag_string": "[0][0][0][0]",
            "codec_tag": "0x0000",
            "sample_fmt": "fltp",
            "sample_rate": "48000",
            "channels": 6,
            "channel_layout": "5.1(side)",
            "bits_per_sample": 0,
            "initial_padding": 0,
            "dmix_mode": "0",
            "ltrt_cmixlev": "0.000000",
            "ltrt_surmixlev": "0.000000",
            "loro_cmixlev": "0.000000",
            "loro_surmixlev": "0.000000",
            "r_frame_rate": "0/0",
            "avg_frame_rate": "0/0",
            "time_base": "1/1000",
            "start_pts": 2002,
            "start_time": "2.002000",
            "bit_rate": "640000",
            "disposition": {
                "default": 0,
                "dub": 0,
                "original": 0,
                "comment": 0,
                "lyrics": 0,
                "karaoke": 0,
                "forced": 0,
                "hearing_impaired": 0,
                "visual_impaired": 0,
                "clean_effects": 0,
                "attached_pic": 0,
                "timed_thumbnails": 0,
                "non_diegetic": 0,
                "captions": 0,
                "descriptions": 0,
                "metadata": 0,
                "dependent": 0,
                "still_image": 0,
                "multilayer": 0
            },
            "tags": {
                "language": "spa",
                "BPS-eng": "640000",
                "DURATION-eng": "02:18:15.456000000",
                "NUMBER_OF_FRAMES-eng": "259233",
                "NUMBER_OF_BYTES-eng": "663636480",
                "_STATISTICS_WRITING_APP-eng": "mkvmerge v28.0.0 ('Voice In My Head') 64-bit",
                "_STATISTICS_WRITING_DATE_UTC-eng": "2018-10-26 22:56:00",
                "_STATISTICS_TAGS-eng": "BPS DURATION NUMBER_OF_FRAMES NUMBER_OF_BYTES"
            }
        },
        {
            "index": 7,
            "codec_name": "ac3",
            "codec_long_name": "ATSC A/52A (AC-3)",
            "codec_type": "audio",
            "codec_tag_string": "[0][0][0][0]",
            "codec_tag": "0x0000",
            "sample_fmt": "fltp",
            "sample_rate": "48000",
            "channels": 2,
            "channel_layout": "stereo",
            "bits_per_sample": 0,
            "initial_padding": 0,
            "dmix_mode": "0",
            "ltrt_cmixlev": "0.000000",
            "ltrt_surmixlev": "0.000000",
            "loro_cmixlev": "0.000000",
            "loro_surmixlev": "0.000000",
            "r_frame_rate": "0/0",
            "avg_frame_rate": "0/0",
            "time_base": "1/1000",
            "start_pts": 2002,
            "start_time": "2.002000",
            "bit_rate": "192000",
            "disposition": {
                "default": 0,
                "dub": 0,
                "original": 0,
                "comment": 0,
                "lyrics": 0,
                "karaoke": 0,
                "forced": 0,
                "hearing_impaired": 0,
                "visual_impaired": 0,
                "clean_effects": 0,
                "attached_pic": 0,
                "timed_thumbnails": 0,
                "non_diegetic": 0,
                "captions": 0,
                "descriptions": 0,
                "metadata": 0,
                "dependent": 0,
                "still_image": 0,
                "multilayer": 0
            },
            "tags": {
                "language": "spa",
                "BPS-eng": "192000",
                "DURATION-eng": "02:18:15.456000000",
                "NUMBER_OF_FRAMES-eng": "259233",
                "NUMBER_OF_BYTES-eng": "199090944",
                "_STATISTICS_WRITING_APP-eng": "mkvmerge v28.0.0 ('Voice In My Head') 64-bit",
                "_STATISTICS_WRITING_DATE_UTC-eng": "2018-10-26 22:56:00",
                "_STATISTICS_TAGS-eng": "BPS DURATION NUMBER_OF_FRAMES NUMBER_OF_BYTES"
            }
        },
        {
            "index": 8,
            "codec_name": "ac3",
            "codec_long_name": "ATSC A/52A (AC-3)",
            "codec_type": "audio",
            "codec_tag_string": "[0][0][0][0]",
            "codec_tag": "0x0000",
            "sample_fmt": "fltp",
            "sample_rate": "48000",
            "channels": 2,
            "channel_layout": "stereo",
            "bits_per_sample": 0,
            "initial_padding": 0,
            "dmix_mode": "0",
            "ltrt_cmixlev": "0.000000",
            "ltrt_surmixlev": "0.000000",
            "loro_cmixlev": "0.000000",
            "loro_surmixlev": "0.000000",
            "r_frame_rate": "0/0",
            "avg_frame_rate": "0/0",
            "time_base": "1/1000",
            "start_pts": 2002,
            "start_time": "2.002000",
            "bit_rate": "192000",
            "disposition": {
                "default": 0,
                "dub": 0,
                "original": 0,
                "comment": 0,
                "lyrics": 0,
                "karaoke": 0,
                "forced": 0,
                "hearing_impaired": 0,
                "visual_impaired": 0,
                "clean_effects": 0,
                "attached_pic": 0,
                "timed_thumbnails": 0,
                "non_diegetic": 0,
                "captions": 0,
                "descriptions": 0,
                "metadata": 0,
                "dependent": 0,
                "still_image": 0,
                "multilayer": 0
            },
            "tags": {
                "language": "por",
                "BPS-eng": "192000",
                "DURATION-eng": "02:18:15.456000000",
                "NUMBER_OF_FRAMES-eng": "259233",
                "NUMBER_OF_BYTES-eng": "199090944",
                "_STATISTICS_WRITING_APP-eng": "mkvmerge v28.0.0 ('Voice In My Head') 64-bit",
                "_STATISTICS_WRITING_DATE_UTC-eng": "2018-10-26 22:56:00",
                "_STATISTICS_TAGS-eng": "BPS DURATION NUMBER_OF_FRAMES NUMBER_OF_BYTES"
            }
        },
        {
            "index": 9,
            "codec_name": "ac3",
            "codec_long_name": "ATSC A/52A (AC-3)",
            "codec_type": "audio",
            "codec_tag_string": "[0][0][0][0]",
            "codec_tag": "0x0000",
            "sample_fmt": "fltp",
            "sample_rate": "48000",
            "channels": 6,
            "channel_layout": "5.1(side)",
            "bits_per_sample": 0,
            "initial_padding": 0,
            "dmix_mode": "0",
            "ltrt_cmixlev": "0.000000",
            "ltrt_surmixlev": "0.000000",
            "loro_cmixlev": "0.000000",
            "loro_surmixlev": "0.000000",
            "r_frame_rate": "0/0",
            "avg_frame_rate": "0/0",
            "time_base": "1/1000",
            "start_pts": 2002,
            "start_time": "2.002000",
            "bit_rate": "640000",
            "disposition": {
                "default": 0,
                "dub": 0,
                "original": 0,
                "comment": 0,
                "lyrics": 0,
                "karaoke": 0,
                "forced": 0,
                "hearing_impaired": 0,
                "visual_impaired": 0,
                "clean_effects": 0,
                "attached_pic": 0,
                "timed_thumbnails": 0,
                "non_diegetic": 0,
                "captions": 0,
                "descriptions": 0,
                "metadata": 0,
                "dependent": 0,
                "still_image": 0,
                "multilayer": 0
            },
            "tags": {
                "language": "cze",
                "BPS-eng": "640000",
                "DURATION-eng": "02:18:15.456000000",
                "NUMBER_OF_FRAMES-eng": "259233",
                "NUMBER_OF_BYTES-eng": "663636480",
                "_STATISTICS_WRITING_APP-eng": "mkvmerge v28.0.0 ('Voice In My Head') 64-bit",
                "_STATISTICS_WRITING_DATE_UTC-eng": "2018-10-26 22:56:00",
                "_STATISTICS_TAGS-eng": "BPS DURATION NUMBER_OF_FRAMES NUMBER_OF_BYTES"
            }
        },
        {
            "index": 10,
            "codec_name": "ac3",
            "codec_long_name": "ATSC A/52A (AC-3)",
            "codec_type": "audio",
            "codec_tag_string": "[0][0][0][0]",
            "codec_tag": "0x0000",
            "sample_fmt": "fltp",
            "sample_rate": "48000",
            "channels": 6,
            "channel_layout": "5.1(side)",
            "bits_per_sample": 0,
            "initial_padding": 0,
            "dmix_mode": "0",
            "ltrt_cmixlev": "0.000000",
            "ltrt_surmixlev": "0.000000",
            "loro_cmixlev": "0.000000",
            "loro_surmixlev": "0.000000",
            "r_frame_rate": "0/0",
            "avg_frame_rate": "0/0",
            "time_base": "1/1000",
            "start_pts": 2002,
            "start_time": "2.002000",
            "bit_rate": "640000",
            "disposition": {
                "default": 0,
                "dub": 0,
                "original": 0,
                "comment": 0,
                "lyrics": 0,
                "karaoke": 0,
                "forced": 0,
                "hearing_impaired": 0,
                "visual_impaired": 0,
                "clean_effects": 0,
                "attached_pic": 0,
                "timed_thumbnails": 0,
                "non_diegetic": 0,
                "captions": 0,
                "descriptions": 0,
                "metadata": 0,
                "dependent": 0,
                "still_image": 0,
                "multilayer": 0
            },
            "tags": {
                "language": "hun",
                "BPS-eng": "640000",
                "DURATION-eng": "02:18:15.456000000",
                "NUMBER_OF_FRAMES-eng": "259233",
                "NUMBER_OF_BYTES-eng": "663636480",
                "_STATISTICS_WRITING_APP-eng": "mkvmerge v28.0.0 ('Voice In My Head') 64-bit",
                "_STATISTICS_WRITING_DATE_UTC-eng": "2018-10-26 22:56:00",
                "_STATISTICS_TAGS-eng": "BPS DURATION NUMBER_OF_FRAMES NUMBER_OF_BYTES"
            }
        },
        {
            "index": 11,
            "codec_name": "ac3",
            "codec_long_name": "ATSC A/52A (AC-3)",
            "codec_type": "audio",
            "codec_tag_string": "[0][0][0][0]",
            "codec_tag": "0x0000",
            "sample_fmt": "fltp",
            "sample_rate": "48000",
            "channels": 6,
            "channel_layout": "5.1(side)",
            "bits_per_sample": 0,
            "initial_padding": 0,
            "dmix_mode": "0",
            "ltrt_cmixlev": "0.000000",
            "ltrt_surmixlev": "0.000000",
            "loro_cmixlev": "0.000000",
            "loro_surmixlev": "0.000000",
            "r_frame_rate": "0/0",
            "avg_frame_rate": "0/0",
            "time_base": "1/1000",
            "start_pts": 2002,
            "start_time": "2.002000",
            "bit_rate": "640000",
            "disposition": {
                "default": 0,
                "dub": 0,
                "original": 0,
                "comment": 0,
                "lyrics": 0,
                "karaoke": 0,
                "forced": 0,
                "hearing_impaired": 0,
                "visual_impaired": 0,
                "clean_effects": 0,
                "attached_pic": 0,
                "timed_thumbnails": 0,
                "non_diegetic": 0,
                "captions": 0,
                "descriptions": 0,
                "metadata": 0,
                "dependent": 0,
                "still_image": 0,
                "multilayer": 0
            },
            "tags": {
                "language": "pol",
                "BPS-eng": "640000",
                "DURATION-eng": "02:18:15.456000000",
                "NUMBER_OF_FRAMES-eng": "259233",
                "NUMBER_OF_BYTES-eng": "663636480",
                "_STATISTICS_WRITING_APP-eng": "mkvmerge v28.0.0 ('Voice In My Head') 64-bit",
                "_STATISTICS_WRITING_DATE_UTC-eng": "2018-10-26 22:56:00",
                "_STATISTICS_TAGS-eng": "BPS DURATION NUMBER_OF_FRAMES NUMBER_OF_BYTES"
            }
        },
        {
            "index": 12,
            "codec_name": "ac3",
            "codec_long_name": "ATSC A/52A (AC-3)",
            "codec_type": "audio",
            "codec_tag_string": "[0][0][0][0]",
            "codec_tag": "0x0000",
            "sample_fmt": "fltp",
            "sample_rate": "48000",
            "channels": 6,
            "channel_layout": "5.1(side)",
            "bits_per_sample": 0,
            "initial_padding": 0,
            "dmix_mode": "0",
            "ltrt_cmixlev": "0.000000",
            "ltrt_surmixlev": "0.000000",
            "loro_cmixlev": "0.000000",
            "loro_surmixlev": "0.000000",
            "r_frame_rate": "0/0",
            "avg_frame_rate": "0/0",
            "time_base": "1/1000",
            "start_pts": 2002,
            "start_time": "2.002000",
            "bit_rate": "640000",
            "disposition": {
                "default": 0,
                "dub": 0,
                "original": 0,
                "comment": 0,
                "lyrics": 0,
                "karaoke": 0,
                "forced": 0,
                "hearing_impaired": 0,
                "visual_impaired": 0,
                "clean_effects": 0,
                "attached_pic": 0,
                "timed_thumbnails": 0,
                "non_diegetic": 0,
                "captions": 0,
                "descriptions": 0,
                "metadata": 0,
                "dependent": 0,
                "still_image": 0,
                "multilayer": 0
            },
            "tags": {
                "language": "rus",
                "BPS-eng": "640000",
                "DURATION-eng": "02:18:15.456000000",
                "NUMBER_OF_FRAMES-eng": "259233",
                "NUMBER_OF_BYTES-eng": "663636480",
                "_STATISTICS_WRITING_APP-eng": "mkvmerge v28.0.0 ('Voice In My Head') 64-bit",
                "_STATISTICS_WRITING_DATE_UTC-eng": "2018-10-26 22:56:00",
                "_STATISTICS_TAGS-eng": "BPS DURATION NUMBER_OF_FRAMES NUMBER_OF_BYTES"
            }
        },
        {
            "index": 13,
            "codec_name": "ac3",
            "codec_long_name": "ATSC A/52A (AC-3)",
            "codec_type": "audio",
            "codec_tag_string": "[0][0][0][0]",
            "codec_tag": "0x0000",
            "sample_fmt": "fltp",
            "sample_rate": "48000",
            "channels": 6,
            "channel_layout": "5.1(side)",
            "bits_per_sample": 0,
            "initial_padding": 0,
            "dmix_mode": "0",
            "ltrt_cmixlev": "0.000000",
            "ltrt_surmixlev": "0.000000",
            "loro_cmixlev": "0.000000",
            "loro_surmixlev": "0.000000",
            "r_frame_rate": "0/0",
            "avg_frame_rate": "0/0",
            "time_base": "1/1000",
            "start_pts": 2002,
            "start_time": "2.002000",
            "bit_rate": "640000",
            "disposition": {
                "default": 0,
                "dub": 0,
                "original": 0,
                "comment": 0,
                "lyrics": 0,
                "karaoke": 0,
                "forced": 0,
                "hearing_impaired": 0,
                "visual_impaired": 0,
                "clean_effects": 0,
                "attached_pic": 0,
                "timed_thumbnails": 0,
                "non_diegetic": 0,
                "captions": 0,
                "descriptions": 0,
                "metadata": 0,
                "dependent": 0,
                "still_image": 0,
                "multilayer": 0
            },
            "tags": {
                "language": "tha",
                "BPS-eng": "640000",
                "DURATION-eng": "02:18:15.456000000",
                "NUMBER_OF_FRAMES-eng": "259233",
                "NUMBER_OF_BYTES-eng": "663636480",
                "_STATISTICS_WRITING_APP-eng": "mkvmerge v28.0.0 ('Voice In My Head') 64-bit",
                "_STATISTICS_WRITING_DATE_UTC-eng": "2018-10-26 22:56:00",
                "_STATISTICS_TAGS-eng": "BPS DURATION NUMBER_OF_FRAMES NUMBER_OF_BYTES"
            }
        },
        {
            "index": 14,
            "codec_name": "ac3",
            "codec_long_name": "ATSC A/52A (AC-3)",
            "codec_type": "audio",
            "codec_tag_string": "[0][0][0][0]",
            "codec_tag": "0x0000",
            "sample_fmt": "fltp",
            "sample_rate": "48000",
            "channels": 6,
            "channel_layout": "5.1(side)",
            "bits_per_sample": 0,
            "initial_padding": 0,
            "dmix_mode": "0",
            "ltrt_cmixlev": "0.000000",
            "ltrt_surmixlev": "0.000000",
            "loro_cmixlev": "0.000000",
            "loro_surmixlev": "0.000000",
            "r_frame_rate": "0/0",
            "avg_frame_rate": "0/0",
            "time_base": "1/1000",
            "start_pts": 2002,
            "start_time": "2.002000",
            "bit_rate": "640000",
            "disposition": {
                "default": 0,
                "dub": 0,
                "original": 0,
                "comment": 0,
                "lyrics": 0,
                "karaoke": 0,
                "forced": 0,
                "hearing_impaired": 0,
                "visual_impaired": 0,
                "clean_effects": 0,
                "attached_pic": 0,
                "timed_thumbnails": 0,
                "non_diegetic": 0,
                "captions": 0,
                "descriptions": 0,
                "metadata": 0,
                "dependent": 0,
                "still_image": 0,
                "multilayer": 0
            },
            "tags": {
                "language": "tur",
                "BPS-eng": "640000",
                "DURATION-eng": "02:18:15.456000000",
                "NUMBER_OF_FRAMES-eng": "259233",
                "NUMBER_OF_BYTES-eng": "663636480",
                "_STATISTICS_WRITING_APP-eng": "mkvmerge v28.0.0 ('Voice In My Head') 64-bit",
                "_STATISTICS_WRITING_DATE_UTC-eng": "2018-10-26 22:56:00",
                "_STATISTICS_TAGS-eng": "BPS DURATION NUMBER_OF_FRAMES NUMBER_OF_BYTES"
            }
        },
        {
            "index": 15,
            "codec_name": "ac3",
            "codec_long_name": "ATSC A/52A (AC-3)",
            "codec_type": "audio",
            "codec_tag_string": "[0][0][0][0]",
            "codec_tag": "0x0000",
            "sample_fmt": "fltp",
            "sample_rate": "48000",
            "channels": 6,
            "channel_layout": "5.1(side)",
            "bits_per_sample": 0,
            "initial_padding": 0,
            "dmix_mode": "0",
            "ltrt_cmixlev": "0.000000",
            "ltrt_surmixlev": "0.000000",
            "loro_cmixlev": "0.000000",
            "loro_surmixlev": "0.000000",
            "r_frame_rate": "0/0",
            "avg_frame_rate": "0/0",
            "time_base": "1/1000",
            "start_pts": 2002,
            "start_time": "2.002000",
            "bit_rate": "640000",
            "disposition": {
                "default": 0,
                "dub": 0,
                "original": 0,
                "comment": 0,
                "lyrics": 0,
                "karaoke": 0,
                "forced": 0,
                "hearing_impaired": 0,
                "visual_impaired": 0,
                "clean_effects": 0,
                "attached_pic": 0,
                "timed_thumbnails": 0,
                "non_diegetic": 0,
                "captions": 0,
                "descriptions": 0,
                "metadata": 0,
                "dependent": 0,
                "still_image": 0,
                "multilayer": 0
            },
            "tags": {
                "language": "jpn",
                "BPS-eng": "640000",
                "DURATION-eng": "02:18:15.456000000",
                "NUMBER_OF_FRAMES-eng": "259233",
                "NUMBER_OF_BYTES-eng": "663636480",
                "_STATISTICS_WRITING_APP-eng": "mkvmerge v28.0.0 ('Voice In My Head') 64-bit",
                "_STATISTICS_WRITING_DATE_UTC-eng": "2018-10-26 22:56:00",
                "_STATISTICS_TAGS-eng": "BPS DURATION NUMBER_OF_FRAMES NUMBER_OF_BYTES"
            }
        },
        {
            "index": 16,
            "codec_name": "hdmv_pgs_subtitle",
            "codec_long_name": "HDMV Presentation Graphic Stream subtitles",
            "codec_type": "subtitle",
            "codec_tag_string": "[0][0][0][0]",
            "codec_tag": "0x0000",
            "r_frame_rate": "0/0",
            "avg_frame_rate": "0/0",
            "time_base": "1/1000",
            "start_pts": 0,
            "start_time": "0.000000",
            "duration_ts": 8297504,
            "duration": "8297.504000",
            "disposition": {
                "default": 1,
                "dub": 0,
                "original": 0,
                "comment": 0,
                "lyrics": 0,
                "karaoke": 0,
                "forced": 0,
                "hearing_impaired": 0,
                "visual_impaired": 0,
                "clean_effects": 0,
                "attached_pic": 0,
                "timed_thumbnails": 0,
                "non_diegetic": 0,
                "captions": 0,
                "descriptions": 0,
                "metadata": 0,
                "dependent": 0,
                "still_image": 0,
                "multilayer": 0
            },
            "tags": {
                "language": "jpn",
                "BPS-eng": "18890",
                "DURATION-eng": "02:16:24.844000000",
                "NUMBER_OF_FRAMES-eng": "2694",
                "NUMBER_OF_BYTES-eng": "19326861",
                "_STATISTICS_WRITING_APP-eng": "mkvmerge v28.0.0 ('Voice In My Head') 64-bit",
                "_STATISTICS_WRITING_DATE_UTC-eng": "2018-10-26 22:56:00",
                "_STATISTICS_TAGS-eng": "BPS DURATION NUMBER_OF_FRAMES NUMBER_OF_BYTES"
            }
        },
        {
            "index": 17,
            "codec_name": "hdmv_pgs_subtitle",
            "codec_long_name": "HDMV Presentation Graphic Stream subtitles",
            "codec_type": "subtitle",
            "codec_tag_string": "[0][0][0][0]",
            "codec_tag": "0x0000",
            "r_frame_rate": "0/0",
            "avg_frame_rate": "0/0",
            "time_base": "1/1000",
            "start_pts": 0,
            "start_time": "0.000000",
            "duration_ts": 8297504,
            "duration": "8297.504000",
            "disposition": {
                "default": 0,
                "dub": 0,
                "original": 0,
                "comment": 0,
                "lyrics": 0,
                "karaoke": 0,
                "forced": 0,
                "hearing_impaired": 0,
                "visual_impaired": 0,
                "clean_effects": 0,
                "attached_pic": 0,
                "timed_thumbnails": 0,
                "non_diegetic": 0,
                "captions": 0,
                "descriptions": 0,
                "metadata": 0,
                "dependent": 0,
                "still_image": 0,
                "multilayer": 0
            },
            "tags": {
                "language": "eng",
                "BPS-eng": "24435",
                "DURATION-eng": "02:16:45.906000000",
                "NUMBER_OF_FRAMES-eng": "2458",
                "NUMBER_OF_BYTES-eng": "25064469",
                "_STATISTICS_WRITING_APP-eng": "mkvmerge v28.0.0 ('Voice In My Head') 64-bit",
                "_STATISTICS_WRITING_DATE_UTC-eng": "2018-10-26 22:56:00",
                "_STATISTICS_TAGS-eng": "BPS DURATION NUMBER_OF_FRAMES NUMBER_OF_BYTES"
            }
        },
        {
            "index": 18,
            "codec_name": "hdmv_pgs_subtitle",
            "codec_long_name": "HDMV Presentation Graphic Stream subtitles",
            "codec_type": "subtitle",
            "codec_tag_string": "[0][0][0][0]",
            "codec_tag": "0x0000",
            "r_frame_rate": "0/0",
            "avg_frame_rate": "0/0",
            "time_base": "1/1000",
            "start_pts": 0,
            "start_time": "0.000000",
            "duration_ts": 8297504,
            "duration": "8297.504000",
            "disposition": {
                "default": 0,
                "dub": 0,
                "original": 0,
                "comment": 0,
                "lyrics": 0,
                "karaoke": 0,
                "forced": 0,
                "hearing_impaired": 0,
                "visual_impaired": 0,
                "clean_effects": 0,
                "attached_pic": 0,
                "timed_thumbnails": 0,
                "non_diegetic": 0,
                "captions": 0,
                "descriptions": 0,
                "metadata": 0,
                "dependent": 0,
                "still_image": 0,
                "multilayer": 0
            },
            "tags": {
                "language": "fre",
                "BPS-eng": "20539",
                "DURATION-eng": "02:16:45.655000000",
                "NUMBER_OF_FRAMES-eng": "2612",
                "NUMBER_OF_BYTES-eng": "21067728",
                "_STATISTICS_WRITING_APP-eng": "mkvmerge v28.0.0 ('Voice In My Head') 64-bit",
                "_STATISTICS_WRITING_DATE_UTC-eng": "2018-10-26 22:56:00",
                "_STATISTICS_TAGS-eng": "BPS DURATION NUMBER_OF_FRAMES NUMBER_OF_BYTES"
            }
        },
        {
            "index": 19,
            "codec_name": "hdmv_pgs_subtitle",
            "codec_long_name": "HDMV Presentation Graphic Stream subtitles",
            "codec_type": "subtitle",
            "codec_tag_string": "[0][0][0][0]",
            "codec_tag": "0x0000",
            "r_frame_rate": "0/0",
            "avg_frame_rate": "0/0",
            "time_base": "1/1000",
            "start_pts": 0,
            "start_time": "0.000000",
            "duration_ts": 8297504,
            "duration": "8297.504000",
            "disposition": {
                "default": 0,
                "dub": 0,
                "original": 0,
                "comment": 0,
                "lyrics": 0,
                "karaoke": 0,
                "forced": 0,
                "hearing_impaired": 0,
                "visual_impaired": 0,
                "clean_effects": 0,
                "attached_pic": 0,
                "timed_thumbnails": 0,
                "non_diegetic": 0,
                "captions": 0,
                "descriptions": 0,
                "metadata": 0,
                "dependent": 0,
                "still_image": 0,
                "multilayer": 0
            },
            "tags": {
                "language": "ger",
                "BPS-eng": "25964",
                "DURATION-eng": "02:16:45.865000000",
                "NUMBER_OF_FRAMES-eng": "2478",
                "NUMBER_OF_BYTES-eng": "26633146",
                "_STATISTICS_WRITING_APP-eng": "mkvmerge v28.0.0 ('Voice In My Head') 64-bit",
                "_STATISTICS_WRITING_DATE_UTC-eng": "2018-10-26 22:56:00",
                "_STATISTICS_TAGS-eng": "BPS DURATION NUMBER_OF_FRAMES NUMBER_OF_BYTES"
            }
        },
        {
            "index": 20,
            "codec_name": "hdmv_pgs_subtitle",
            "codec_long_name": "HDMV Presentation Graphic Stream subtitles",
            "codec_type": "subtitle",
            "codec_tag_string": "[0][0][0][0]",
            "codec_tag": "0x0000",
            "r_frame_rate": "0/0",
            "avg_frame_rate": "0/0",
            "time_base": "1/1000",
            "start_pts": 0,
            "start_time": "0.000000",
            "duration_ts": 8297504,
            "duration": "8297.504000",
            "disposition": {
                "default": 0,
                "dub": 0,
                "original": 0,
                "comment": 0,
                "lyrics": 0,
                "karaoke": 0,
                "forced": 0,
                "hearing_impaired": 0,
                "visual_impaired": 0,
                "clean_effects": 0,
                "attached_pic": 0,
                "timed_thumbnails": 0,
                "non_diegetic": 0,
                "captions": 0,
                "descriptions": 0,
                "metadata": 0,
                "dependent": 0,
                "still_image": 0,
                "multilayer": 0
            },
            "tags": {
                "language": "ita",
                "BPS-eng": "25471",
                "DURATION-eng": "02:16:45.865000000",
                "NUMBER_OF_FRAMES-eng": "2482",
                "NUMBER_OF_BYTES-eng": "26127096",
                "_STATISTICS_WRITING_APP-eng": "mkvmerge v28.0.0 ('Voice In My Head') 64-bit",
                "_STATISTICS_WRITING_DATE_UTC-eng": "2018-10-26 22:56:00",
                "_STATISTICS_TAGS-eng": "BPS DURATION NUMBER_OF_FRAMES NUMBER_OF_BYTES"
            }
        },
        {
            "index": 21,
            "codec_name": "hdmv_pgs_subtitle",
            "codec_long_name": "HDMV Presentation Graphic Stream subtitles",
            "codec_type": "subtitle",
            "codec_tag_string": "[0][0][0][0]",
            "codec_tag": "0x0000",
            "r_frame_rate": "0/0",
            "avg_frame_rate": "0/0",
            "time_base": "1/1000",
            "start_pts": 0,
            "start_time": "0.000000",
            "duration_ts": 8297504,
            "duration": "8297.504000",
            "disposition": {
                "default": 0,
                "dub": 0,
                "original": 0,
                "comment": 0,
                "lyrics": 0,
                "karaoke": 0,
                "forced": 0,
                "hearing_impaired": 0,
                "visual_impaired": 0,
                "clean_effects": 0,
                "attached_pic": 0,
                "timed_thumbnails": 0,
                "non_diegetic": 0,
                "captions": 0,
                "descriptions": 0,
                "metadata": 0,
                "dependent": 0,
                "still_image": 0,
                "multilayer": 0
            },
            "tags": {
                "language": "spa",
                "BPS-eng": "24608",
                "DURATION-eng": "02:16:45.865000000",
                "NUMBER_OF_FRAMES-eng": "2588",
                "NUMBER_OF_BYTES-eng": "25241567",
                "_STATISTICS_WRITING_APP-eng": "mkvmerge v28.0.0 ('Voice In My Head') 64-bit",
                "_STATISTICS_WRITING_DATE_UTC-eng": "2018-10-26 22:56:00",
                "_STATISTICS_TAGS-eng": "BPS DURATION NUMBER_OF_FRAMES NUMBER_OF_BYTES"
            }
        },
        {
            "index": 22,
            "codec_name": "hdmv_pgs_subtitle",
            "codec_long_name": "HDMV Presentation Graphic Stream subtitles",
            "codec_type": "subtitle",
            "codec_tag_string": "[0][0][0][0]",
            "codec_tag": "0x0000",
            "r_frame_rate": "0/0",
            "avg_frame_rate": "0/0",
            "time_base": "1/1000",
            "start_pts": 0,
            "start_time": "0.000000",
            "duration_ts": 8297504,
            "duration": "8297.504000",
            "disposition": {
                "default": 0,
                "dub": 0,
                "original": 0,
                "comment": 0,
                "lyrics": 0,
                "karaoke": 0,
                "forced": 0,
                "hearing_impaired": 0,
                "visual_impaired": 0,
                "clean_effects": 0,
                "attached_pic": 0,
                "timed_thumbnails": 0,
                "non_diegetic": 0,
                "captions": 0,
                "descriptions": 0,
                "metadata": 0,
                "dependent": 0,
                "still_image": 0,
                "multilayer": 0
            },
            "tags": {
                "language": "dut",
                "BPS-eng": "19752",
                "DURATION-eng": "02:16:45.990000000",
                "NUMBER_OF_FRAMES-eng": "1994",
                "NUMBER_OF_BYTES-eng": "20260882",
                "_STATISTICS_WRITING_APP-eng": "mkvmerge v28.0.0 ('Voice In My Head') 64-bit",
                "_STATISTICS_WRITING_DATE_UTC-eng": "2018-10-26 22:56:00",
                "_STATISTICS_TAGS-eng": "BPS DURATION NUMBER_OF_FRAMES NUMBER_OF_BYTES"
            }
        },
        {
            "index": 23,
            "codec_name": "hdmv_pgs_subtitle",
            "codec_long_name": "HDMV Presentation Graphic Stream subtitles",
            "codec_type": "subtitle",
            "codec_tag_string": "[0][0][0][0]",
            "codec_tag": "0x0000",
            "r_frame_rate": "0/0",
            "avg_frame_rate": "0/0",
            "time_base": "1/1000",
            "start_pts": 0,
            "start_time": "0.000000",
            "duration_ts": 8297504,
            "duration": "8297.504000",
            "disposition": {
                "default": 0,
                "dub": 0,
                "original": 0,
                "comment": 0,
                "lyrics": 0,
                "karaoke": 0,
                "forced": 0,
                "hearing_impaired": 0,
                "visual_impaired": 0,
                "clean_effects": 0,
                "attached_pic": 0,
                "timed_thumbnails": 0,
                "non_diegetic": 0,
                "captions": 0,
                "descriptions": 0,
                "metadata": 0,
                "dependent": 0,
                "still_image": 0,
                "multilayer": 0
            },
            "tags": {
                "language": "chi",
                "BPS-eng": "19523",
                "DURATION-eng": "02:17:35.456000000",
                "NUMBER_OF_FRAMES-eng": "2394",
                "NUMBER_OF_BYTES-eng": "20146766",
                "_STATISTICS_WRITING_APP-eng": "mkvmerge v28.0.0 ('Voice In My Head') 64-bit",
                "_STATISTICS_WRITING_DATE_UTC-eng": "2018-10-26 22:56:00",
                "_STATISTICS_TAGS-eng": "BPS DURATION NUMBER_OF_FRAMES NUMBER_OF_BYTES"
            }
        },
        {
            "index": 24,
            "codec_name": "hdmv_pgs_subtitle",
            "codec_long_name": "HDMV Presentation Graphic Stream subtitles",
            "codec_type": "subtitle",
            "codec_tag_string": "[0][0][0][0]",
            "codec_tag": "0x0000",
            "r_frame_rate": "0/0",
            "avg_frame_rate": "0/0",
            "time_base": "1/1000",
            "start_pts": 0,
            "start_time": "0.000000",
            "duration_ts": 8297504,
            "duration": "8297.504000",
            "disposition": {
                "default": 0,
                "dub": 0,
                "original": 0,
                "comment": 0,
                "lyrics": 0,
                "karaoke": 0,
                "forced": 0,
                "hearing_impaired": 0,
                "visual_impaired": 0,
                "clean_effects": 0,
                "attached_pic": 0,
                "timed_thumbnails": 0,
                "non_diegetic": 0,
                "captions": 0,
                "descriptions": 0,
                "metadata": 0,
                "dependent": 0,
                "still_image": 0,
                "multilayer": 0
            },
            "tags": {
                "language": "kor",
                "BPS-eng": "15145",
                "DURATION-eng": "02:16:45.865000000",
                "NUMBER_OF_FRAMES-eng": "2374",
                "NUMBER_OF_BYTES-eng": "15535121",
                "_STATISTICS_WRITING_APP-eng": "mkvmerge v28.0.0 ('Voice In My Head') 64-bit",
                "_STATISTICS_WRITING_DATE_UTC-eng": "2018-10-26 22:56:00",
                "_STATISTICS_TAGS-eng": "BPS DURATION NUMBER_OF_FRAMES NUMBER_OF_BYTES"
            }
        },
        {
            "index": 25,
            "codec_name": "hdmv_pgs_subtitle",
            "codec_long_name": "HDMV Presentation Graphic Stream subtitles",
            "codec_type": "subtitle",
            "codec_tag_string": "[0][0][0][0]",
            "codec_tag": "0x0000",
            "r_frame_rate": "0/0",
            "avg_frame_rate": "0/0",
            "time_base": "1/1000",
            "start_pts": 0,
            "start_time": "0.000000",
            "duration_ts": 8297504,
            "duration": "8297.504000",
            "disposition": {
                "default": 0,
                "dub": 0,
                "original": 0,
                "comment": 0,
                "lyrics": 0,
                "karaoke": 0,
                "forced": 0,
                "hearing_impaired": 0,
                "visual_impaired": 0,
                "clean_effects": 0,
                "attached_pic": 0,
                "timed_thumbnails": 0,
                "non_diegetic": 0,
                "captions": 0,
                "descriptions": 0,
                "metadata": 0,
                "dependent": 0,
                "still_image": 0,
                "multilayer": 0
            },
            "tags": {
                "language": "spa",
                "BPS-eng": "23105",
                "DURATION-eng": "02:17:35.456000000",
                "NUMBER_OF_FRAMES-eng": "2380",
                "NUMBER_OF_BYTES-eng": "23842864",
                "_STATISTICS_WRITING_APP-eng": "mkvmerge v28.0.0 ('Voice In My Head') 64-bit",
                "_STATISTICS_WRITING_DATE_UTC-eng": "2018-10-26 22:56:00",
                "_STATISTICS_TAGS-eng": "BPS DURATION NUMBER_OF_FRAMES NUMBER_OF_BYTES"
            }
        },
        {
            "index": 26,
            "codec_name": "hdmv_pgs_subtitle",
            "codec_long_name": "HDMV Presentation Graphic Stream subtitles",
            "codec_type": "subtitle",
            "codec_tag_string": "[0][0][0][0]",
            "codec_tag": "0x0000",
            "r_frame_rate": "0/0",
            "avg_frame_rate": "0/0",
            "time_base": "1/1000",
            "start_pts": 0,
            "start_time": "0.000000",
            "duration_ts": 8297504,
            "duration": "8297.504000",
            "disposition": {
                "default": 0,
                "dub": 0,
                "original": 0,
                "comment": 0,
                "lyrics": 0,
                "karaoke": 0,
                "forced": 0,
                "hearing_impaired": 0,
                "visual_impaired": 0,
                "clean_effects": 0,
                "attached_pic": 0,
                "timed_thumbnails": 0,
                "non_diegetic": 0,
                "captions": 0,
                "descriptions": 0,
                "metadata": 0,
                "dependent": 0,
                "still_image": 0,
                "multilayer": 0
            },
            "tags": {
                "language": "por",
                "BPS-eng": "23180",
                "DURATION-eng": "02:16:45.865000000",
                "NUMBER_OF_FRAMES-eng": "2132",
                "NUMBER_OF_BYTES-eng": "23776518",
                "_STATISTICS_WRITING_APP-eng": "mkvmerge v28.0.0 ('Voice In My Head') 64-bit",
                "_STATISTICS_WRITING_DATE_UTC-eng": "2018-10-26 22:56:00",
                "_STATISTICS_TAGS-eng": "BPS DURATION NUMBER_OF_FRAMES NUMBER_OF_BYTES"
            }
        },
        {
            "index": 27,
            "codec_name": "hdmv_pgs_subtitle",
            "codec_long_name": "HDMV Presentation Graphic Stream subtitles",
            "codec_type": "subtitle",
            "codec_tag_string": "[0][0][0][0]",
            "codec_tag": "0x0000",
            "r_frame_rate": "0/0",
            "avg_frame_rate": "0/0",
            "time_base": "1/1000",
            "start_pts": 0,
            "start_time": "0.000000",
            "duration_ts": 8297504,
            "duration": "8297.504000",
            "disposition": {
                "default": 0,
                "dub": 0,
                "original": 0,
                "comment": 0,
                "lyrics": 0,
                "karaoke": 0,
                "forced": 0,
                "hearing_impaired": 0,
                "visual_impaired": 0,
                "clean_effects": 0,
                "attached_pic": 0,
                "timed_thumbnails": 0,
                "non_diegetic": 0,
                "captions": 0,
                "descriptions": 0,
                "metadata": 0,
                "dependent": 0,
                "still_image": 0,
                "multilayer": 0
            },
            "tags": {
                "language": "ara",
                "BPS-eng": "12408",
                "DURATION-eng": "02:17:35.498000000",
                "NUMBER_OF_FRAMES-eng": "2404",
                "NUMBER_OF_BYTES-eng": "12805300",
                "_STATISTICS_WRITING_APP-eng": "mkvmerge v28.0.0 ('Voice In My Head') 64-bit",
                "_STATISTICS_WRITING_DATE_UTC-eng": "2018-10-26 22:56:00",
                "_STATISTICS_TAGS-eng": "BPS DURATION NUMBER_OF_FRAMES NUMBER_OF_BYTES"
            }
        },
        {
            "index": 28,
            "codec_name": "hdmv_pgs_subtitle",
            "codec_long_name": "HDMV Presentation Graphic Stream subtitles",
            "codec_type": "subtitle",
            "codec_tag_string": "[0][0][0][0]",
            "codec_tag": "0x0000",
            "r_frame_rate": "0/0",
            "avg_frame_rate": "0/0",
            "time_base": "1/1000",
            "start_pts": 0,
            "start_time": "0.000000",
            "duration_ts": 8297504,
            "duration": "8297.504000",
            "disposition": {
                "default": 0,
                "dub": 0,
                "original": 0,
                "comment": 0,
                "lyrics": 0,
                "karaoke": 0,
                "forced": 0,
                "hearing_impaired": 0,
                "visual_impaired": 0,
                "clean_effects": 0,
                "attached_pic": 0,
                "timed_thumbnails": 0,
                "non_diegetic": 0,
                "captions": 0,
                "descriptions": 0,
                "metadata": 0,
                "dependent": 0,
                "still_image": 0,
                "multilayer": 0
            },
            "tags": {
                "language": "hrv",
                "BPS-eng": "17844",
                "DURATION-eng": "02:16:45.865000000",
                "NUMBER_OF_FRAMES-eng": "2394",
                "NUMBER_OF_BYTES-eng": "18303482",
                "_STATISTICS_WRITING_APP-eng": "mkvmerge v28.0.0 ('Voice In My Head') 64-bit",
                "_STATISTICS_WRITING_DATE_UTC-eng": "2018-10-26 22:56:00",
                "_STATISTICS_TAGS-eng": "BPS DURATION NUMBER_OF_FRAMES NUMBER_OF_BYTES"
            }
        },
        {
            "index": 29,
            "codec_name": "hdmv_pgs_subtitle",
            "codec_long_name": "HDMV Presentation Graphic Stream subtitles",
            "codec_type": "subtitle",
            "codec_tag_string": "[0][0][0][0]",
            "codec_tag": "0x0000",
            "r_frame_rate": "0/0",
            "avg_frame_rate": "0/0",
            "time_base": "1/1000",
            "start_pts": 0,
            "start_time": "0.000000",
            "duration_ts": 8297504,
            "duration": "8297.504000",
            "disposition": {
                "default": 0,
                "dub": 0,
                "original": 0,
                "comment": 0,
                "lyrics": 0,
                "karaoke": 0,
                "forced": 0,
                "hearing_impaired": 0,
                "visual_impaired": 0,
                "clean_effects": 0,
                "attached_pic": 0,
                "timed_thumbnails": 0,
                "non_diegetic": 0,
                "captions": 0,
                "descriptions": 0,
                "metadata": 0,
                "dependent": 0,
                "still_image": 0,
                "multilayer": 0
            },
            "tags": {
                "language": "cze",
                "BPS-eng": "19449",
                "DURATION-eng": "02:16:45.865000000",
                "NUMBER_OF_FRAMES-eng": "2370",
                "NUMBER_OF_BYTES-eng": "19950344",
                "_STATISTICS_WRITING_APP-eng": "mkvmerge v28.0.0 ('Voice In My Head') 64-bit",
                "_STATISTICS_WRITING_DATE_UTC-eng": "2018-10-26 22:56:00",
                "_STATISTICS_TAGS-eng": "BPS DURATION NUMBER_OF_FRAMES NUMBER_OF_BYTES"
            }
        },
        {
            "index": 30,
            "codec_name": "hdmv_pgs_subtitle",
            "codec_long_name": "HDMV Presentation Graphic Stream subtitles",
            "codec_type": "subtitle",
            "codec_tag_string": "[0][0][0][0]",
            "codec_tag": "0x0000",
            "r_frame_rate": "0/0",
            "avg_frame_rate": "0/0",
            "time_base": "1/1000",
            "start_pts": 0,
            "start_time": "0.000000",
            "duration_ts": 8297504,
            "duration": "8297.504000",
            "disposition": {
                "default": 0,
                "dub": 0,
                "original": 0,
                "comment": 0,
                "lyrics": 0,
                "karaoke": 0,
                "forced": 0,
                "hearing_impaired": 0,
                "visual_impaired": 0,
                "clean_effects": 0,
                "attached_pic": 0,
                "timed_thumbnails": 0,
                "non_diegetic": 0,
                "captions": 0,
                "descriptions": 0,
                "metadata": 0,
                "dependent": 0,
                "still_image": 0,
                "multilayer": 0
            },
            "tags": {
                "language": "dan",
                "BPS-eng": "21079",
                "DURATION-eng": "02:16:45.865000000",
                "NUMBER_OF_FRAMES-eng": "1946",
                "NUMBER_OF_BYTES-eng": "21622137",
                "_STATISTICS_WRITING_APP-eng": "mkvmerge v28.0.0 ('Voice In My Head') 64-bit",
                "_STATISTICS_WRITING_DATE_UTC-eng": "2018-10-26 22:56:00",
                "_STATISTICS_TAGS-eng": "BPS DURATION NUMBER_OF_FRAMES NUMBER_OF_BYTES"
            }
        },
        {
            "index": 31,
            "codec_name": "hdmv_pgs_subtitle",
            "codec_long_name": "HDMV Presentation Graphic Stream subtitles",
            "codec_type": "subtitle",
            "codec_tag_string": "[0][0][0][0]",
            "codec_tag": "0x0000",
            "r_frame_rate": "0/0",
            "avg_frame_rate": "0/0",
            "time_base": "1/1000",
            "start_pts": 0,
            "start_time": "0.000000",
            "duration_ts": 8297504,
            "duration": "8297.504000",
            "disposition": {
                "default": 0,
                "dub": 0,
                "original": 0,
                "comment": 0,
                "lyrics": 0,
                "karaoke": 0,
                "forced": 0,
                "hearing_impaired": 0,
                "visual_impaired": 0,
                "clean_effects": 0,
                "attached_pic": 0,
                "timed_thumbnails": 0,
                "non_diegetic": 0,
                "captions": 0,
                "descriptions": 0,
                "metadata": 0,
                "dependent": 0,
                "still_image": 0,
                "multilayer": 0
            },
            "tags": {
                "language": "fin",
                "BPS-eng": "20822",
                "DURATION-eng": "02:16:45.823000000",
                "NUMBER_OF_FRAMES-eng": "1928",
                "NUMBER_OF_BYTES-eng": "21358582",
                "_STATISTICS_WRITING_APP-eng": "mkvmerge v28.0.0 ('Voice In My Head') 64-bit",
                "_STATISTICS_WRITING_DATE_UTC-eng": "2018-10-26 22:56:00",
                "_STATISTICS_TAGS-eng": "BPS DURATION NUMBER_OF_FRAMES NUMBER_OF_BYTES"
            }
        },
        {
            "index": 32,
            "codec_name": "hdmv_pgs_subtitle",
            "codec_long_name": "HDMV Presentation Graphic Stream subtitles",
            "codec_type": "subtitle",
            "codec_tag_string": "[0][0][0][0]",
            "codec_tag": "0x0000",
            "r_frame_rate": "0/0",
            "avg_frame_rate": "0/0",
            "time_base": "1/1000",
            "start_pts": 0,
            "start_time": "0.000000",
            "duration_ts": 8297504,
            "duration": "8297.504000",
            "disposition": {
                "default": 0,
                "dub": 0,
                "original": 0,
                "comment": 0,
                "lyrics": 0,
                "karaoke": 0,
                "forced": 0,
                "hearing_impaired": 0,
                "visual_impaired": 0,
                "clean_effects": 0,
                "attached_pic": 0,
                "timed_thumbnails": 0,
                "non_diegetic": 0,
                "captions": 0,
                "descriptions": 0,
                "metadata": 0,
                "dependent": 0,
                "still_image": 0,
                "multilayer": 0
            },
            "tags": {
                "language": "gre",
                "BPS-eng": "46967",
                "DURATION-eng": "02:16:45.906000000",
                "NUMBER_OF_FRAMES-eng": "2392",
                "NUMBER_OF_BYTES-eng": "48176308",
                "_STATISTICS_WRITING_APP-eng": "mkvmerge v28.0.0 ('Voice In My Head') 64-bit",
                "_STATISTICS_WRITING_DATE_UTC-eng": "2018-10-26 22:56:00",
                "_STATISTICS_TAGS-eng": "BPS DURATION NUMBER_OF_FRAMES NUMBER_OF_BYTES"
            }
        },
        {
            "index": 33,
            "codec_name": "hdmv_pgs_subtitle",
            "codec_long_name": "HDMV Presentation Graphic Stream subtitles",
            "codec_type": "subtitle",
            "codec_tag_string": "[0][0][0][0]",
            "codec_tag": "0x0000",
            "r_frame_rate": "0/0",
            "avg_frame_rate": "0/0",
            "time_base": "1/1000",
            "start_pts": 0,
            "start_time": "0.000000",
            "duration_ts": 8297504,
            "duration": "8297.504000",
            "disposition": {
                "default": 0,
                "dub": 0,
                "original": 0,
                "comment": 0,
                "lyrics": 0,
                "karaoke": 0,
                "forced": 0,
                "hearing_impaired": 0,
                "visual_impaired": 0,
                "clean_effects": 0,
                "attached_pic": 0,
                "timed_thumbnails": 0,
                "non_diegetic": 0,
                "captions": 0,
                "descriptions": 0,
                "metadata": 0,
                "dependent": 0,
                "still_image": 0,
                "multilayer": 0
            },
            "tags": {
                "language": "hun",
                "BPS-eng": "20193",
                "DURATION-eng": "02:17:35.539000000",
                "NUMBER_OF_FRAMES-eng": "2178",
                "NUMBER_OF_BYTES-eng": "20838068",
                "_STATISTICS_WRITING_APP-eng": "mkvmerge v28.0.0 ('Voice In My Head') 64-bit",
                "_STATISTICS_WRITING_DATE_UTC-eng": "2018-10-26 22:56:00",
                "_STATISTICS_TAGS-eng": "BPS DURATION NUMBER_OF_FRAMES NUMBER_OF_BYTES"
            }
        },
        {
            "index": 34,
            "codec_name": "hdmv_pgs_subtitle",
            "codec_long_name": "HDMV Presentation Graphic Stream subtitles",
            "codec_type": "subtitle",
            "codec_tag_string": "[0][0][0][0]",
            "codec_tag": "0x0000",
            "r_frame_rate": "0/0",
            "avg_frame_rate": "0/0",
            "time_base": "1/1000",
            "start_pts": 0,
            "start_time": "0.000000",
            "duration_ts": 8297504,
            "duration": "8297.504000",
            "disposition": {
                "default": 0,
                "dub": 0,
                "original": 0,
                "comment": 0,
                "lyrics": 0,
                "karaoke": 0,
                "forced": 0,
                "hearing_impaired": 0,
                "visual_impaired": 0,
                "clean_effects": 0,
                "attached_pic": 0,
                "timed_thumbnails": 0,
                "non_diegetic": 0,
                "captions": 0,
                "descriptions": 0,
                "metadata": 0,
                "dependent": 0,
                "still_image": 0,
                "multilayer": 0
            },
            "tags": {
                "language": "nor",
                "BPS-eng": "22217",
                "DURATION-eng": "02:16:45.865000000",
                "NUMBER_OF_FRAMES-eng": "2270",
                "NUMBER_OF_BYTES-eng": "22789217",
                "_STATISTICS_WRITING_APP-eng": "mkvmerge v28.0.0 ('Voice In My Head') 64-bit",
                "_STATISTICS_WRITING_DATE_UTC-eng": "2018-10-26 22:56:00",
                "_STATISTICS_TAGS-eng": "BPS DURATION NUMBER_OF_FRAMES NUMBER_OF_BYTES"
            }
        },
        {
            "index": 35,
            "codec_name": "hdmv_pgs_subtitle",
            "codec_long_name": "HDMV Presentation Graphic Stream subtitles",
            "codec_type": "subtitle",
            "codec_tag_string": "[0][0][0][0]",
            "codec_tag": "0x0000",
            "r_frame_rate": "0/0",
            "avg_frame_rate": "0/0",
            "time_base": "1/1000",
            "start_pts": 0,
            "start_time": "0.000000",
            "duration_ts": 8297504,
            "duration": "8297.504000",
            "disposition": {
                "default": 0,
                "dub": 0,
                "original": 0,
                "comment": 0,
                "lyrics": 0,
                "karaoke": 0,
                "forced": 0,
                "hearing_impaired": 0,
                "visual_impaired": 0,
                "clean_effects": 0,
                "attached_pic": 0,
                "timed_thumbnails": 0,
                "non_diegetic": 0,
                "captions": 0,
                "descriptions": 0,
                "metadata": 0,
                "dependent": 0,
                "still_image": 0,
                "multilayer": 0
            },
            "tags": {
                "language": "pol",
                "BPS-eng": "16619",
                "DURATION-eng": "02:17:35.456000000",
                "NUMBER_OF_FRAMES-eng": "2184",
                "NUMBER_OF_BYTES-eng": "17149932",
                "_STATISTICS_WRITING_APP-eng": "mkvmerge v28.0.0 ('Voice In My Head') 64-bit",
                "_STATISTICS_WRITING_DATE_UTC-eng": "2018-10-26 22:56:00",
                "_STATISTICS_TAGS-eng": "BPS DURATION NUMBER_OF_FRAMES NUMBER_OF_BYTES"
            }
        },
        {
            "index": 36,
            "codec_name": "hdmv_pgs_subtitle",
            "codec_long_name": "HDMV Presentation Graphic Stream subtitles",
            "codec_type": "subtitle",
            "codec_tag_string": "[0][0][0][0]",
            "codec_tag": "0x0000",
            "r_frame_rate": "0/0",
            "avg_frame_rate": "0/0",
            "time_base": "1/1000",
            "start_pts": 0,
            "start_time": "0.000000",
            "duration_ts": 8297504,
            "duration": "8297.504000",
            "disposition": {
                "default": 0,
                "dub": 0,
                "original": 0,
                "comment": 0,
                "lyrics": 0,
                "karaoke": 0,
                "forced": 0,
                "hearing_impaired": 0,
                "visual_impaired": 0,
                "clean_effects": 0,
                "attached_pic": 0,
                "timed_thumbnails": 0,
                "non_diegetic": 0,
                "captions": 0,
                "descriptions": 0,
                "metadata": 0,
                "dependent": 0,
                "still_image": 0,
                "multilayer": 0
            },
            "tags": {
                "language": "por",
                "BPS-eng": "24618",
                "DURATION-eng": "02:16:45.865000000",
                "NUMBER_OF_FRAMES-eng": "2502",
                "NUMBER_OF_BYTES-eng": "25251986",
                "_STATISTICS_WRITING_APP-eng": "mkvmerge v28.0.0 ('Voice In My Head') 64-bit",
                "_STATISTICS_WRITING_DATE_UTC-eng": "2018-10-26 22:56:00",
                "_STATISTICS_TAGS-eng": "BPS DURATION NUMBER_OF_FRAMES NUMBER_OF_BYTES"
            }
        },
        {
            "index": 37,
            "codec_name": "hdmv_pgs_subtitle",
            "codec_long_name": "HDMV Presentation Graphic Stream subtitles",
            "codec_type": "subtitle",
            "codec_tag_string": "[0][0][0][0]",
            "codec_tag": "0x0000",
            "r_frame_rate": "0/0",
            "avg_frame_rate": "0/0",
            "time_base": "1/1000",
            "start_pts": 0,
            "start_time": "0.000000",
            "duration_ts": 8297504,
            "duration": "8297.504000",
            "disposition": {
                "default": 0,
                "dub": 0,
                "original": 0,
                "comment": 0,
                "lyrics": 0,
                "karaoke": 0,
                "forced": 0,
                "hearing_impaired": 0,
                "visual_impaired": 0,
                "clean_effects": 0,
                "attached_pic": 0,
                "timed_thumbnails": 0,
                "non_diegetic": 0,
                "captions": 0,
                "descriptions": 0,
                "metadata": 0,
                "dependent": 0,
                "still_image": 0,
                "multilayer": 0
            },
            "tags": {
                "language": "rum",
                "BPS-eng": "20570",
                "DURATION-eng": "02:17:35.539000000",
                "NUMBER_OF_FRAMES-eng": "2454",
                "NUMBER_OF_BYTES-eng": "21227322",
                "_STATISTICS_WRITING_APP-eng": "mkvmerge v28.0.0 ('Voice In My Head') 64-bit",
                "_STATISTICS_WRITING_DATE_UTC-eng": "2018-10-26 22:56:00",
                "_STATISTICS_TAGS-eng": "BPS DURATION NUMBER_OF_FRAMES NUMBER_OF_BYTES"
            }
        },
        {
            "index": 38,
            "codec_name": "hdmv_pgs_subtitle",
            "codec_long_name": "HDMV Presentation Graphic Stream subtitles",
            "codec_type": "subtitle",
            "codec_tag_string": "[0][0][0][0]",
            "codec_tag": "0x0000",
            "r_frame_rate": "0/0",
            "avg_frame_rate": "0/0",
            "time_base": "1/1000",
            "start_pts": 0,
            "start_time": "0.000000",
            "duration_ts": 8297504,
            "duration": "8297.504000",
            "disposition": {
                "default": 0,
                "dub": 0,
                "original": 0,
                "comment": 0,
                "lyrics": 0,
                "karaoke": 0,
                "forced": 0,
                "hearing_impaired": 0,
                "visual_impaired": 0,
                "clean_effects": 0,
                "attached_pic": 0,
                "timed_thumbnails": 0,
                "non_diegetic": 0,
                "captions": 0,
                "descriptions": 0,
                "metadata": 0,
                "dependent": 0,
                "still_image": 0,
                "multilayer": 0
            },
            "tags": {
                "language": "rus",
                "BPS-eng": "21808",
                "DURATION-eng": "02:17:35.498000000",
                "NUMBER_OF_FRAMES-eng": "2372",
                "NUMBER_OF_BYTES-eng": "22505229",
                "_STATISTICS_WRITING_APP-eng": "mkvmerge v28.0.0 ('Voice In My Head') 64-bit",
                "_STATISTICS_WRITING_DATE_UTC-eng": "2018-10-26 22:56:00",
                "_STATISTICS_TAGS-eng": "BPS DURATION NUMBER_OF_FRAMES NUMBER_OF_BYTES"
            }
        },
        {
            "index": 39,
            "codec_name": "hdmv_pgs_subtitle",
            "codec_long_name": "HDMV Presentation Graphic Stream subtitles",
            "codec_type": "subtitle",
            "codec_tag_string": "[0][0][0][0]",
            "codec_tag": "0x0000",
            "r_frame_rate": "0/0",
            "avg_frame_rate": "0/0",
            "time_base": "1/1000",
            "start_pts": 0,
            "start_time": "0.000000",
            "duration_ts": 8297504,
            "duration": "8297.504000",
            "disposition": {
                "default": 0,
                "dub": 0,
                "original": 0,
                "comment": 0,
                "lyrics": 0,
                "karaoke": 0,
                "forced": 0,
                "hearing_impaired": 0,
                "visual_impaired": 0,
                "clean_effects": 0,
                "attached_pic": 0,
                "timed_thumbnails": 0,
                "non_diegetic": 0,
                "captions": 0,
                "descriptions": 0,
                "metadata": 0,
                "dependent": 0,
                "still_image": 0,
                "multilayer": 0
            },
            "tags": {
                "language": "swe",
                "BPS-eng": "19364",
                "DURATION-eng": "02:16:45.906000000",
                "NUMBER_OF_FRAMES-eng": "1768",
                "NUMBER_OF_BYTES-eng": "19863307",
                "_STATISTICS_WRITING_APP-eng": "mkvmerge v28.0.0 ('Voice In My Head') 64-bit",
                "_STATISTICS_WRITING_DATE_UTC-eng": "2018-10-26 22:56:00",
                "_STATISTICS_TAGS-eng": "BPS DURATION NUMBER_OF_FRAMES NUMBER_OF_BYTES"
            }
        },
        {
            "index": 40,
            "codec_name": "hdmv_pgs_subtitle",
            "codec_long_name": "HDMV Presentation Graphic Stream subtitles",
            "codec_type": "subtitle",
            "codec_tag_string": "[0][0][0][0]",
            "codec_tag": "0x0000",
            "r_frame_rate": "0/0",
            "avg_frame_rate": "0/0",
            "time_base": "1/1000",
            "start_pts": 0,
            "start_time": "0.000000",
            "duration_ts": 8297504,
            "duration": "8297.504000",
            "disposition": {
                "default": 0,
                "dub": 0,
                "original": 0,
                "comment": 0,
                "lyrics": 0,
                "karaoke": 0,
                "forced": 0,
                "hearing_impaired": 0,
                "visual_impaired": 0,
                "clean_effects": 0,
                "attached_pic": 0,
                "timed_thumbnails": 0,
                "non_diegetic": 0,
                "captions": 0,
                "descriptions": 0,
                "metadata": 0,
                "dependent": 0,
                "still_image": 0,
                "multilayer": 0
            },
            "tags": {
                "language": "tha",
                "BPS-eng": "22639",
                "DURATION-eng": "02:16:45.865000000",
                "NUMBER_OF_FRAMES-eng": "2648",
                "NUMBER_OF_BYTES-eng": "23222281",
                "_STATISTICS_WRITING_APP-eng": "mkvmerge v28.0.0 ('Voice In My Head') 64-bit",
                "_STATISTICS_WRITING_DATE_UTC-eng": "2018-10-26 22:56:00",
                "_STATISTICS_TAGS-eng": "BPS DURATION NUMBER_OF_FRAMES NUMBER_OF_BYTES"
            }
        },
        {
            "index": 41,
            "codec_name": "hdmv_pgs_subtitle",
            "codec_long_name": "HDMV Presentation Graphic Stream subtitles",
            "codec_type": "subtitle",
            "codec_tag_string": "[0][0][0][0]",
            "codec_tag": "0x0000",
            "r_frame_rate": "0/0",
            "avg_frame_rate": "0/0",
            "time_base": "1/1000",
            "start_pts": 0,
            "start_time": "0.000000",
            "duration_ts": 8297504,
            "duration": "8297.504000",
            "disposition": {
                "default": 0,
                "dub": 0,
                "original": 0,
                "comment": 0,
                "lyrics": 0,
                "karaoke": 0,
                "forced": 0,
                "hearing_impaired": 0,
                "visual_impaired": 0,
                "clean_effects": 0,
                "attached_pic": 0,
                "timed_thumbnails": 0,
                "non_diegetic": 0,
                "captions": 0,
                "descriptions": 0,
                "metadata": 0,
                "dependent": 0,
                "still_image": 0,
                "multilayer": 0
            },
            "tags": {
                "language": "tur",
                "BPS-eng": "23407",
                "DURATION-eng": "02:16:45.865000000",
                "NUMBER_OF_FRAMES-eng": "2386",
                "NUMBER_OF_BYTES-eng": "24009738",
                "_STATISTICS_WRITING_APP-eng": "mkvmerge v28.0.0 ('Voice In My Head') 64-bit",
                "_STATISTICS_WRITING_DATE_UTC-eng": "2018-10-26 22:56:00",
                "_STATISTICS_TAGS-eng": "BPS DURATION NUMBER_OF_FRAMES NUMBER_OF_BYTES"
            }
        },
        {
            "index": 42,
            "codec_name": "hdmv_pgs_subtitle",
            "codec_long_name": "HDMV Presentation Graphic Stream subtitles",
            "codec_type": "subtitle",
            "codec_tag_string": "[0][0][0][0]",
            "codec_tag": "0x0000",
            "r_frame_rate": "0/0",
            "avg_frame_rate": "0/0",
            "time_base": "1/1000",
            "start_pts": 0,
            "start_time": "0.000000",
            "duration_ts": 8297504,
            "duration": "8297.504000",
            "disposition": {
                "default": 0,
                "dub": 0,
                "original": 0,
                "comment": 0,
                "lyrics": 0,
                "karaoke": 0,
                "forced": 0,
                "hearing_impaired": 0,
                "visual_impaired": 0,
                "clean_effects": 0,
                "attached_pic": 0,
                "timed_thumbnails": 0,
                "non_diegetic": 0,
                "captions": 0,
                "descriptions": 0,
                "metadata": 0,
                "dependent": 0,
                "still_image": 0,
                "multilayer": 0
            },
            "tags": {
                "language": "jpn",
                "BPS-eng": "33302",
                "DURATION-eng": "02:17:43.297000000",
                "NUMBER_OF_FRAMES-eng": "3604",
                "NUMBER_OF_BYTES-eng": "34398914",
                "_STATISTICS_WRITING_APP-eng": "mkvmerge v28.0.0 ('Voice In My Head') 64-bit",
                "_STATISTICS_WRITING_DATE_UTC-eng": "2018-10-26 22:56:00",
                "_STATISTICS_TAGS-eng": "BPS DURATION NUMBER_OF_FRAMES NUMBER_OF_BYTES"
            }
        },
        {
            "index": 43,
            "codec_name": "hdmv_pgs_subtitle",
            "codec_long_name": "HDMV Presentation Graphic Stream subtitles",
            "codec_type": "subtitle",
            "codec_tag_string": "[0][0][0][0]",
            "codec_tag": "0x0000",
            "r_frame_rate": "0/0",
            "avg_frame_rate": "0/0",
            "time_base": "1/1000",
            "start_pts": 0,
            "start_time": "0.000000",
            "duration_ts": 8297504,
            "duration": "8297.504000",
            "disposition": {
                "default": 0,
                "dub": 0,
                "original": 0,
                "comment": 0,
                "lyrics": 0,
                "karaoke": 0,
                "forced": 0,
                "hearing_impaired": 0,
                "visual_impaired": 0,
                "clean_effects": 0,
                "attached_pic": 0,
                "timed_thumbnails": 0,
                "non_diegetic": 0,
                "captions": 0,
                "descriptions": 0,
                "metadata": 0,
                "dependent": 0,
                "still_image": 0,
                "multilayer": 0
            },
            "tags": {
                "language": "jpn",
                "BPS-eng": "31156",
                "DURATION-eng": "02:17:48.051000000",
                "NUMBER_OF_FRAMES-eng": "3401",
                "NUMBER_OF_BYTES-eng": "32200894",
                "_STATISTICS_WRITING_APP-eng": "mkvmerge v28.0.0 ('Voice In My Head') 64-bit",
                "_STATISTICS_WRITING_DATE_UTC-eng": "2018-10-26 22:56:00",
                "_STATISTICS_TAGS-eng": "BPS DURATION NUMBER_OF_FRAMES NUMBER_OF_BYTES"
            }
        },
        {
            "index": 44,
            "codec_name": "hdmv_pgs_subtitle",
            "codec_long_name": "HDMV Presentation Graphic Stream subtitles",
            "codec_type": "subtitle",
            "codec_tag_string": "[0][0][0][0]",
            "codec_tag": "0x0000",
            "r_frame_rate": "0/0",
            "avg_frame_rate": "0/0",
            "time_base": "1/1000",
            "start_pts": 0,
            "start_time": "0.000000",
            "duration_ts": 8297504,
            "duration": "8297.504000",
            "disposition": {
                "default": 0,
                "dub": 0,
                "original": 0,
                "comment": 0,
                "lyrics": 0,
                "karaoke": 0,
                "forced": 0,
                "hearing_impaired": 0,
                "visual_impaired": 0,
                "clean_effects": 0,
                "attached_pic": 0,
                "timed_thumbnails": 0,
                "non_diegetic": 0,
                "captions": 0,
                "descriptions": 0,
                "metadata": 0,
                "dependent": 0,
                "still_image": 0,
                "multilayer": 0
            },
            "tags": {
                "language": "cze",
                "BPS-eng": "372",
                "DURATION-eng": "00:30:21.195000000",
                "NUMBER_OF_FRAMES-eng": "16",
                "NUMBER_OF_BYTES-eng": "84790",
                "_STATISTICS_WRITING_APP-eng": "mkvmerge v28.0.0 ('Voice In My Head') 64-bit",
                "_STATISTICS_WRITING_DATE_UTC-eng": "2018-10-26 22:56:00",
                "_STATISTICS_TAGS-eng": "BPS DURATION NUMBER_OF_FRAMES NUMBER_OF_BYTES"
            }
        },
        {
            "index": 45,
            "codec_name": "hdmv_pgs_subtitle",
            "codec_long_name": "HDMV Presentation Graphic Stream subtitles",
            "codec_type": "subtitle",
            "codec_tag_string": "[0][0][0][0]",
            "codec_tag": "0x0000",
            "r_frame_rate": "0/0",
            "avg_frame_rate": "0/0",
            "time_base": "1/1000",
            "start_pts": 0,
            "start_time": "0.000000",
            "duration_ts": 8297504,
            "duration": "8297.504000",
            "disposition": {
                "default": 0,
                "dub": 0,
                "original": 0,
                "comment": 0,
                "lyrics": 0,
                "karaoke": 0,
                "forced": 0,
                "hearing_impaired": 0,
                "visual_impaired": 0,
                "clean_effects": 0,
                "attached_pic": 0,
                "timed_thumbnails": 0,
                "non_diegetic": 0,
                "captions": 0,
                "descriptions": 0,
                "metadata": 0,
                "dependent": 0,
                "still_image": 0,
                "multilayer": 0
            },
            "tags": {
                "language": "hun",
                "BPS-eng": "50",
                "DURATION-eng": "02:17:35.539000000",
                "NUMBER_OF_FRAMES-eng": "8",
                "NUMBER_OF_BYTES-eng": "52447",
                "_STATISTICS_WRITING_APP-eng": "mkvmerge v28.0.0 ('Voice In My Head') 64-bit",
                "_STATISTICS_WRITING_DATE_UTC-eng": "2018-10-26 22:56:00",
                "_STATISTICS_TAGS-eng": "BPS DURATION NUMBER_OF_FRAMES NUMBER_OF_BYTES"
            }
        },
        {
            "index": 46,
            "codec_name": "hdmv_pgs_subtitle",
            "codec_long_name": "HDMV Presentation Graphic Stream subtitles",
            "codec_type": "subtitle",
            "codec_tag_string": "[0][0][0][0]",
            "codec_tag": "0x0000",
            "r_frame_rate": "0/0",
            "avg_frame_rate": "0/0",
            "time_base": "1/1000",
            "start_pts": 0,
            "start_time": "0.000000",
            "duration_ts": 8297504,
            "duration": "8297.504000",
            "disposition": {
                "default": 0,
                "dub": 0,
                "original": 0,
                "comment": 0,
                "lyrics": 0,
                "karaoke": 0,
                "forced": 0,
                "hearing_impaired": 0,
                "visual_impaired": 0,
                "clean_effects": 0,
                "attached_pic": 0,
                "timed_thumbnails": 0,
                "non_diegetic": 0,
                "captions": 0,
                "descriptions": 0,
                "metadata": 0,
                "dependent": 0,
                "still_image": 0,
                "multilayer": 0
            },
            "tags": {
                "language": "tur",
                "BPS-eng": "430",
                "DURATION-eng": "00:34:39.494000000",
                "NUMBER_OF_FRAMES-eng": "18",
                "NUMBER_OF_BYTES-eng": "111967",
                "_STATISTICS_WRITING_APP-eng": "mkvmerge v28.0.0 ('Voice In My Head') 64-bit",
                "_STATISTICS_WRITING_DATE_UTC-eng": "2018-10-26 22:56:00",
                "_STATISTICS_TAGS-eng": "BPS DURATION NUMBER_OF_FRAMES NUMBER_OF_BYTES"
            }
        },
        {
            "index": 47,
            "codec_name": "hdmv_pgs_subtitle",
            "codec_long_name": "HDMV Presentation Graphic Stream subtitles",
            "codec_type": "subtitle",
            "codec_tag_string": "[0][0][0][0]",
            "codec_tag": "0x0000",
            "r_frame_rate": "0/0",
            "avg_frame_rate": "0/0",
            "time_base": "1/1000",
            "start_pts": 0,
            "start_time": "0.000000",
            "duration_ts": 8297504,
            "duration": "8297.504000",
            "disposition": {
                "default": 0,
                "dub": 0,
                "original": 0,
                "comment": 0,
                "lyrics": 0,
                "karaoke": 0,
                "forced": 0,
                "hearing_impaired": 0,
                "visual_impaired": 0,
                "clean_effects": 0,
                "attached_pic": 0,
                "timed_thumbnails": 0,
                "non_diegetic": 0,
                "captions": 0,
                "descriptions": 0,
                "metadata": 0,
                "dependent": 0,
                "still_image": 0,
                "multilayer": 0
            },
            "tags": {
                "language": "jpn",
                "BPS-eng": "379",
                "DURATION-eng": "01:13:41.292000000",
                "NUMBER_OF_FRAMES-eng": "112",
                "NUMBER_OF_BYTES-eng": "210011",
                "_STATISTICS_WRITING_APP-eng": "mkvmerge v28.0.0 ('Voice In My Head') 64-bit",
                "_STATISTICS_WRITING_DATE_UTC-eng": "2018-10-26 22:56:00",
                "_STATISTICS_TAGS-eng": "BPS DURATION NUMBER_OF_FRAMES NUMBER_OF_BYTES"
            }
        }
    ],
    "format": {
        "filename": "./sample_4k_remux_multiaudio.mkv",
        "nb_streams": 48,
        "nb_programs": 0,
        "nb_stream_groups": 0,
        "format_name": "matroska,webm",
        "format_long_name": "Matroska / WebM",
        "start_time": "0.000000",
        "duration": "8297.504000",
        "size": "81835482970",
        "bit_rate": "78901301",
        "probe_score": 100,
        "tags": {
            "encoder": "libebml v1.3.6 + libmatroska v1.4.9",
            "creation_time": "2018-10-26T22:56:00.000000Z"
        }
    }
}
